<svg xmlns="http://www.w3.org/2000/svg" viewBox="-1.5 -1.5 35 35">
  <g id="그룹_112" data-name="그룹 112" transform="translate(-1160 -36)">
    <g id="그룹_5" data-name="그룹 5" transform="translate(-182 -9)">
      <path id="패스_4" data-name="패스 4" d="M3.977,26.971V17.064A9.723,9.723,0,0,1,13.5,7.156a9.724,9.724,0,0,1,9.528,9.908v9.907" transform="translate(1344.912 43.862)" fill="none" stroke-linecap="round" stroke-miterlimit="10" stroke-width="1.85"/>
      <path id="패스_5" data-name="패스 5" d="M11.667,6.764V5.132a3.565,3.565,0,1,1,7.124,0V6.764" transform="translate(1343.186 44.97)" fill="none"  stroke-linecap="round" stroke-miterlimit="10" stroke-width="1.85"/>
      <line id="선_2" data-name="선 2" x2="23.009" transform="translate(1346.911 70.833)" fill="none"  stroke-linecap="round" stroke-miterlimit="10" stroke-width="1.85"/>
      <path id="패스_6" data-name="패스 6" d="M19.75,31.723a5.011,5.011,0,0,1-4.91,5.106,5.011,5.011,0,0,1-4.91-5.106" transform="translate(1343.577 39.11)" fill="none"  stroke-linecap="round" stroke-miterlimit="10" stroke-width="1.85"/>
      <rect id="사각형_5" data-name="사각형 5" transform="translate(1342 45)" fill="none"/>
    </g>
  </g>
</svg>
